<svg xmlns="http://www.w3.org/2000/svg" viewBox="0 0 550 500" width="550" height="500">
     
     <text x="250" y="20" text-anchor="middle">Life Expectancy in Mexico, US, and Canada (1960-2020)</text>
     <line class="axis" x1="50" y1="30" x2="50" y2="452.5" style="stroke:black;stroke-width:5" />
     <line class="axis" x1="50" y1="450" x2="500" y2="450" style="stroke:black;stroke-width:5"/>
     <text class="Year" x="250" y="495" text-anchor="middle">Year</text>
     {% for point in canada_data %}
    <line class="line" x1="{{55+loop.index0*7}}" y1="{{(380-point[0]*2.5)}}" x2="{{55+(loop.index0+1)*7}}" y2="{{(380-point[1]*2.5)}}" stroke-linecap="round" stroke="black" stroke-width="3"/>
     {% endfor %}
    <text x="480" y="140">Canada</text>


     {% for point in US_data %}
    <line class="line" x1="{{55+loop.index0*7}}" y1="{{410-point[0]*3}}" x2="{{55+(loop.index0+1)*7}}" y2="{{410-point[1]*3}}" stroke-linecap="round" stroke="red" stroke-width="3"/>
     {% endfor %}

     {% for point in mexico_data %}
    <line class="line" x1="{{55+loop.index0*7}}" y1="{{445-point[0]*4}}" x2="{{55+(loop.index0+1)*7}}" y2="{{445-point[1]*4}}" stroke-linecap="round" stroke="blue" stroke-width="3"/>
     {% endfor %}
     <!-- scale / change y values to fit graph cleanly -->
     {% for point in avg_data %}
    <line class="line" x1="{{55+loop.index0*7}}" y1="{{(400-point[0]*3)}}" x2="{{55+(loop.index0+1)*7}}" y2="{{(400-point[1]*3)}}" stroke-linecap="round" stroke="yellow" stroke-width="3"/>
     {% endfor %}

     {% for year in years %}
         {%set intyear = year|int %}
          <!-- convert int to string jinja -->
         {%if intyear % 10 ==0%}
     <text class="Year" x="{{75+6.625*loop.index0}}" y="475" text-anchor="middle">{{year}}</text>
         {%endif%}
     {%endfor%}

     {%for point in percentages %} 
          <text class="percents" x="30" y="{{450-100*loop.index0}}" text-anchor="middle">{{point}}%</text>
     {%endfor%}

</svg>
