<svg xmlns="http://www.w3.org/2000/svg" viewBox="0 0 550 500" width="550" height="500">
     
     <text x="250" y="20" text-anchor="middle">Life Expectancy in Mexico, US, and Canada (1960-2020)</text>
     <line class="axis" x1="50" y1="30" x2="50" y2="452.5" style="stroke:black;stroke-width:5" />
     <line class="axis" x1="50" y1="450" x2="500" y2="450" style="stroke:black;stroke-width:5"/>
     <text class="Year" x="250" y="495" text-anchor="middle">Year</text>
     {% for point in canada_data %}
    <line class="line" x1="{{60+loop.index0*7}}" y1="{{300-point[0]}}" x2="{{60+(loop.index0+1)*7}}" y2="{{300-point[1]}}" stroke-linecap="round" stroke="black" stroke-width="3"/>
     {% endfor %}

     {% for point in US_data %}
    <line class="line" x1="{{60+loop.index0*7}}" y1="{{300-point[0]}}" x2="{{60+(loop.index0+1)*7}}" y2="{{300-point[1]}}" stroke-linecap="round" stroke="red" stroke-width="3"/>
     {% endfor %}

     {% for point in mexico_data %}
    <line class="line" x1="{{60+loop.index0*7}}" y1="{{300-point[0]}}" x2="{{60+(loop.index0+1)*7}}" y2="{{300-point[1]}}" stroke-linecap="round" stroke="blue" stroke-width="3"/>
     {% endfor %}

     {% for point in avg_data %}
    <line class="line" x1="{{60+loop.index0*7}}" y1="{{300-point[0]}}" x2="{{60+(loop.index0+1)*7}}" y2="{{300-point[1]}}" stroke-linecap="round" stroke="yellow" stroke-width="3"/>
     {% endfor %}

     {% for year in years %}
          {set mod = year % 10}
          {% if mod == 0 %}
     <text class="Year" x="{{75+10*loop.index0}}" y="495" text-anchor="middle">{{year}}</text>
          {%endif%}
     {%endfor%}

</svg>
