<svg xmlns="http://www.w3.org/2000/svg" viewBox="0 0 700 500" width="700" height="500">
     
     <text x="250" y="20" text-anchor="middle">Life Expectancy in Mexico, US, and Canada (1960-2020)</text>
     <line class="axis" x1="50" y1="30" x2="50" y2="452.5" style="stroke:black;stroke-width:5" />
     <line class="axis" x1="50" y1="450" x2="500" y2="450" style="stroke:black;stroke-width:5"/>
     <text class="Year" x="250" y="495" text-anchor="middle">Year</text>

     <g class="Canada_points" stroke-linecap="round" stroke="#ffff24" stroke-width="4">
     {% for point in canada_data %}
    <line class="line" x1="{{55+loop.index0*7}}" y1="{{(345-point[0]*2.425)}}" x2="{{55+(loop.index0+1)*7}}" y2="{{(345-point[1]*2.425)}}"/>
     {% endfor %}
     </g>
    <text x="500" y="110">Canada</text>


     <g class="US_points" stroke-linecap="round" stroke="#0000fe" stroke-width="4">
     {% for point in US_data %}
     <line class="line" x1="{{55+loop.index0*7}}" y1="{{325-point[0]*2.1}}" x2="{{55+(loop.index0+1)*7}}" y2="{{325-point[1]*2.1}}"/>
     {% endfor %}
     </g>
    <text x="500" y="155">US</text>
    
    <g class="Mexico_points" stroke-linecap="round" stroke="#ee6352" stroke-width="4">
     {% for point in mexico_data %}
    <line class="line" x1="{{55+loop.index0*7}}" y1="{{330-point[0]*2.175}}" x2="{{55+(loop.index0+1)*7}}" y2="{{330-point[1]*2.175}}"/>
     {% endfor %}
    </g>

     <text x="500" y="210">Mexico</text>
     <!-- scale / change y values to fit graph cleanly -->

     <g class="Avg_points" stroke-linecap="round" stroke="black" stroke-width="4">
     
    <line class="line" x1="55" y1="185" x2="475" y2="185" />
    
     </g>
    <text x="500" y="190"> Univesral Average</text>
     {% for year in years %}
         {%set intyear = year|int %}
          <!-- convert int to string jinja -->
         {%if intyear % 10 ==0%}
     <text class="Year" x="{{75+6.625*loop.index0}}" y="475" text-anchor="middle">{{year}}</text>
         {%endif%}
     {%endfor%}

     {%for point in percentages %} 
          <text class="percents" x="30" y="{{450-79.5*loop.index0}}" text-anchor="middle">{{point}}%</text>
          <line class="marking" x1="50" y1="{{450-81*loop.index0}}" x2="500" y2="{{450-81*loop.index0}}"  />
         
     {%endfor%}
     {%for i in range(5)%}
      <line class="sub-marking" x1="50" y1="{{410-81*loop.index0}}" x2="500" y2="{{410-81*loop.index0}}" />
      {%endfor%}
      <text text-anchor="middle" transform="translate(0,250) rotate(270)">Life Expectancy</text>

    
</svg>
